<svg xmlns="http://www.w3.org/2000/svg" width="54" height="54" viewBox="0 0 54 54"><path fill="#E72B1E" d="M0 0h54v54H0z"/><g fill="#FFF"><path d="M21.478 23.328h-1.177v-4.647h-1.709v-1h4.592v1h-1.706zM24.781 20.795v2.533h-1.178v-5.647h1.178v2.141h2.201v-2.141h1.182v5.647h-1.182v-2.533zM32.73 18.68h-2.964v1.187h2.611v.999h-2.611v1.464h2.963v.997h-4.063V17.68h4.064zM10.687 24.199h1.099v5.638h-1.178l-2.299-4.021h-.016v4.021H7.191v-5.638h1.241l2.236 3.924h.019zM15.03 24.049c.747 0 2.709.322 2.709 2.969 0 2.644-1.962 2.967-2.709 2.967-.745 0-2.71-.323-2.71-2.967 0-2.647 1.965-2.969 2.71-2.969m0 4.94c.636 0 1.53-.394 1.53-1.972 0-1.577-.895-1.971-1.53-1.971s-1.532.394-1.532 1.971c0 1.579.898 1.972 1.532 1.972M26.05 29.837h-1.177v-4.643h-1.707v-.996h4.584v.996h-1.7zM29.352 27.309v2.528h-1.176v-5.639h1.176v2.135h2.199v-2.135h1.178v5.639h-1.178v-2.528zM18.229 24.199h2.852c1.5 0 1.774 1.106 1.774 1.594 0 .621-.316 1.155-.873 1.344.464.203.716.376.716 1.429 0 .824 0 1.028.251 1.123v.147h-1.305c-.077-.264-.125-.557-.125-1.137 0-.771-.045-1.067-.92-1.067h-1.215v2.204h-1.155v-5.637zm2.54 2.482c.612 0 .911-.213.911-.771 0-.297-.137-.736-.826-.736h-1.469v1.507h1.384zM15.504 36.519h-1.209v-5.788h4.117v1.026h-2.908v1.305h2.545v1.025h-2.545zM18.955 36.519h-1.273l2.064-5.787h1.395l2.038 5.787h-1.315l-.369-1.193h-2.136l-.404 1.193zm.728-2.192h1.474l-.718-2.289h-.014l-.742 2.289zM26.891 32.646c-.095-.345-.283-.998-1.279-.998-.581 0-1.438.387-1.438 2.022 0 1.038.413 1.976 1.438 1.976.668 0 1.136-.38 1.279-1.088H28.1c-.242 1.256-1.062 2.134-2.515 2.134-1.539 0-2.644-1.038-2.644-3.038 0-2.021 1.168-3.054 2.662-3.054 1.73 0 2.431 1.194 2.496 2.046h-1.208zM32.75 31.756h-3.039v1.216h2.679v1.024h-2.679v1.5h3.039v1.023h-4.164v-5.788h4.164zM12.117 33.581c.852 0 1.566.673 1.566 1.554 0 .897-.715 1.57-1.566 1.57a1.562 1.562 0 0 1-1.574-1.57c0-.881.719-1.554 1.574-1.554m0 2.895c.723 0 1.281-.576 1.281-1.341 0-.748-.559-1.323-1.281-1.323-.73 0-1.291.575-1.291 1.323 0 .764.561 1.341 1.291 1.341m-.609-2.247h.705c.436 0 .64.172.64.521 0 .33-.209.468-.479.498l.521.806h-.305l-.498-.785h-.3v.785h-.284v-1.825zm.284.81h.296c.251 0 .48-.013.48-.301 0-.242-.209-.28-.4-.28h-.376v.581zM36.594 36.164v-2.989a2.44 2.44 0 0 0-2.436-2.437l-.272-.007v5.787h2.711v-.354h-.003zM47.719 36.164v-4.942c0-7.478-6.084-13.562-13.562-13.562h-.146l.022-.003h-.147v5.664h.377c4.391.058 7.987 3.641 8.039 8.042l.002 3.958H42.3v1.185h5.42v-.342h-.001z"/><path d="M41.448 36.354v-4.905c-.017-3.904-3.136-7.095-7.007-7.247v-.006h-.118c-.054-.001-.104-.009-.159-.009h-.152l.016-.007h-.141v5.656h.125v.007h.146a3.296 3.296 0 0 1 3.292 3.292l-.008 3.37h4v-.151h.006z"/></g></svg>